<svg width="20" height="20" viewBox="0 0 20 20" fill="none" xmlns="http://www.w3.org/2000/svg">
<path d="M6.27161 0.739258C3.25396 0.739258 0.798584 3.19832 0.798584 6.21948V14.0465C0.798584 17.0673 3.2554 19.5252 6.27381 19.5252H14.0937C17.1117 19.5252 19.5674 17.0662 19.5674 14.045V6.21728C19.5674 3.19687 17.1106 0.739258 14.0922 0.739258H6.27161ZM15.8137 3.74502C16.2281 3.74502 16.5644 4.08166 16.5644 4.49645C16.5644 4.91125 16.2281 5.24789 15.8137 5.24789C15.3993 5.24789 15.0629 4.91125 15.0629 4.49645C15.0629 4.08166 15.3993 3.74502 15.8137 3.74502ZM10.183 5.24789C12.8745 5.24789 15.0629 7.43834 15.0629 10.1322C15.0629 12.8262 12.8741 15.0166 10.183 15.0166C7.49156 15.0166 5.30311 12.8258 5.30311 10.1322C5.30311 7.43871 7.49156 5.24789 10.183 5.24789ZM10.183 6.75077C8.31701 6.75077 6.80462 8.26455 6.80462 10.1322C6.80462 12 8.31701 13.5137 10.183 13.5137C12.049 13.5137 13.5614 12 13.5614 10.1322C13.5614 8.26455 12.049 6.75077 10.183 6.75077Z" fill="#F33333"/>
</svg>
