<svg width="21" height="23" viewBox="0 0 21 23" fill="none" xmlns="http://www.w3.org/2000/svg">
<path d="M0.516328 9.10496C0.748784 6.57934 1.95076 4.29185 3.90062 2.67104C5.85048 1.05022 8.31871 0.283025 10.8442 0.515512C13.3696 0.747999 15.6573 1.94995 17.2781 3.89981C20.4654 7.7325 20.1215 13.349 16.6099 16.7716L20.7281 21.7256C20.9929 22.0467 20.9497 22.516 20.6294 22.7854C20.5257 22.8746 20.4009 22.9247 20.2761 22.9461C20.0217 22.9899 19.7489 22.8987 19.5696 22.6866L15.4514 17.7327C14.2714 18.5689 12.9524 19.0956 11.5973 19.3286C8.35973 19.8851 4.91663 18.7485 2.67108 16.044C1.05101 14.0988 0.284665 11.6352 0.516353 9.10512L0.516328 9.10496ZM3.8258 15.0882C6.64678 18.4794 11.6979 18.9445 15.0889 16.1234C18.48 13.3022 18.9406 8.2521 16.1248 4.86447C14.757 3.22346 12.8354 2.21096 10.7067 2.01503C9.99578 1.95152 9.29073 1.97749 8.60624 2.09516C7.24182 2.32971 5.95254 2.918 4.86163 3.82933C3.22061 5.19714 2.20811 7.11874 2.01218 9.24747C1.81547 11.3717 2.46253 13.4461 3.82568 15.0878L3.8258 15.0882Z" fill="black"/>
</svg>
