<svg width="17" height="16" viewBox="0 0 17 16" fill="none" xmlns="http://www.w3.org/2000/svg">
<path d="M12.829 15.0629C12.8967 15.0575 12.9586 15.0237 12.9993 14.9701C13.0399 14.9166 13.0555 14.8484 13.0419 14.7827L11.9554 9.56824L15.9355 5.9817H15.9353C16.0046 5.91995 16.0307 5.8237 16.0018 5.736C15.9731 5.64829 15.8949 5.58539 15.8019 5.57537L10.4462 4.98131L8.22216 0.136812L8.22233 0.136976C8.18373 0.0535408 8.09948 0 8.00668 0C7.91389 0 7.82963 0.0535408 7.79103 0.136976L5.56703 4.98147L0.21126 5.57553V5.57537C0.118465 5.58539 0.0402854 5.64829 0.011543 5.736C-0.017199 5.8237 0.00875092 5.91995 0.0780592 5.9817L4.0581 9.56824L2.97164 14.7827H2.97147C2.95209 14.8729 2.98806 14.966 3.06329 15.0204C3.13867 15.0749 3.23935 15.0805 3.32049 15.035L8.00689 12.4039L12.6933 15.035C12.7348 15.0575 12.7823 15.0674 12.8295 15.0629H12.829ZM12.4716 14.3708L8.12286 11.9304C8.05077 11.8901 7.9624 11.8901 7.8903 11.9304L3.54153 14.3708L4.54864 9.53473H4.54848C4.56556 9.45326 4.53748 9.36901 4.47474 9.31349L0.78128 5.98188L5.75149 5.43268C5.83427 5.42414 5.90654 5.37306 5.94152 5.29817L8.00667 0.79803L10.0718 5.29817C10.1068 5.37306 10.1791 5.42398 10.2619 5.43268L15.2321 5.98188L11.5386 9.31349C11.4759 9.36901 11.4478 9.45326 11.4649 9.53473L12.472 14.3708H12.4716Z" fill="#EAB665"/>
</svg>
