<svg width="25" height="22" viewBox="0 0 25 22" fill="none" xmlns="http://www.w3.org/2000/svg">
<path d="M24.3456 3.29377C23.4652 3.70351 22.5186 3.97667 21.52 4.10576C22.5354 3.47265 23.3163 2.46284 23.6829 1.26975C22.7329 1.85484 21.6806 2.28441 20.5608 2.51086C19.6666 1.51515 18.3911 0.897461 16.9781 0.897461C14.2637 0.897461 12.0638 3.18848 12.0638 6.01303C12.0638 6.41264 12.1083 6.80211 12.1922 7.18013C8.10876 6.96468 4.48711 4.92568 2.06415 1.83105C1.63845 2.58708 1.39896 3.47265 1.39896 4.40712C1.39896 6.1831 2.26463 7.74627 3.58453 8.66752C2.77884 8.64153 2.02053 8.40626 1.3566 8.02868C1.3566 8.04411 1.3566 8.06701 1.3566 8.0886C1.3566 10.5704 3.05104 12.6367 5.297 13.1072C4.88639 13.2253 4.45272 13.291 4.00562 13.291C3.68813 13.291 3.37902 13.2531 3.07956 13.1967C3.7049 15.2247 5.51929 16.7072 7.66879 16.7508C5.98694 18.1206 3.86889 18.941 1.56547 18.941C1.16744 18.941 0.778646 18.9172 0.394043 18.8683C2.56955 20.3156 5.15356 21.1641 7.92715 21.1641C16.9651 21.1641 21.9092 13.3676 21.9092 6.60429C21.9092 6.38268 21.9025 6.16195 21.8924 5.94386C22.8575 5.22836 23.6888 4.32517 24.3456 3.29377Z" fill="#00B2FF"/>
</svg>
